<svg width="46" height="46" viewBox="0 0 46 46" fill="none" xmlns="http://www.w3.org/2000/svg">
<path d="M23 0C10.3099 0 0 10.3099 0 23C0 27.0794 1.11849 30.8854 2.98437 34.2083L0.0377603 44.7305C-0.0585937 45.0729 0.0351562 45.4414 0.282552 45.6966C0.529948 45.9518 0.894531 46.056 1.24089 45.9701L12.2109 43.2513C15.4349 44.9727 19.0924 46 23 46C35.6901 46 46 35.6901 46 23C46 10.3099 35.6901 0 23 0ZM23 2C34.6094 2 44 11.3906 44 23C44 34.6094 34.6094 44 23 44C19.2786 44 15.7917 43.03 12.7617 41.3333C12.5404 41.2096 12.2799 41.1758 12.0325 41.2357L2.42578 43.6172L5.0013 34.4258C5.07682 34.1628 5.04036 33.8815 4.90234 33.6458C3.0612 30.5234 2 26.8906 2 23C2 11.3906 11.3906 2 23 2ZM14.6432 11C14.0013 11 13.0859 11.2383 12.3346 12.0495C11.8828 12.5352 10 14.3698 10 17.5938C10 20.9557 12.332 23.8555 12.6133 24.2292H12.6159V24.2305C12.5885 24.1953 12.9727 24.7526 13.487 25.4206C14 26.0872 14.7174 26.9648 15.6198 27.9141C17.4232 29.8125 19.9583 32.0078 23.1055 33.3503C24.5547 33.9661 25.6979 34.3398 26.5651 34.612C28.1693 35.1159 29.6315 35.0391 30.7305 34.8776C31.5521 34.7565 32.457 34.3607 33.3516 33.7943C34.2461 33.2292 35.1237 32.5247 35.5104 31.4557C35.7865 30.6888 35.9271 29.9792 35.9792 29.3971C36.0039 29.1055 36.0078 28.8477 35.9883 28.6094C35.9687 28.3711 35.9896 28.1888 35.7682 27.8242C35.3021 27.0599 34.7747 27.0404 34.2253 26.7682C33.9193 26.6159 33.0482 26.1914 32.1758 25.776C31.3034 25.3594 30.5495 24.9922 30.0846 24.8268C29.7904 24.7201 29.431 24.5677 28.9141 24.6276C28.3971 24.6862 27.8854 25.0586 27.5885 25.5C27.306 25.918 26.1706 27.2578 25.8242 27.6523C25.819 27.6497 25.8503 27.6628 25.7135 27.5964C25.2852 27.3841 24.7617 27.2031 23.987 26.7943C23.2109 26.3867 22.2422 25.7826 21.1823 24.8477V24.8451C19.6029 23.4557 18.4974 21.7109 18.1484 21.125C18.1719 21.0977 18.1458 21.1315 18.1953 21.082L18.1979 21.0794C18.5534 20.7292 18.8698 20.3099 19.1367 20.0013C19.5156 19.5664 19.6823 19.181 19.8633 18.8216C20.224 18.1068 20.0234 17.319 19.8151 16.9036V16.9023C19.8294 16.931 19.7018 16.6497 19.5651 16.3255C19.4271 16.0013 19.2513 15.5794 19.0651 15.1302C18.6901 14.2331 18.2721 13.2253 18.0234 12.6341V12.6328C17.7305 11.9375 17.3346 11.4375 16.8164 11.1953C16.2982 10.9531 15.8411 11.0221 15.8229 11.0208H15.8203C15.4505 11.0039 15.0456 11 14.6432 11ZM14.6432 13C15.0286 13 15.4089 13.0052 15.7266 13.0195C16.0547 13.0365 16.0339 13.0378 15.9714 13.0078C15.9062 12.9779 15.9935 12.9688 16.1797 13.4102C16.4232 13.9883 16.8437 14.9987 17.2187 15.901C17.4062 16.3516 17.582 16.7734 17.7227 17.1055C17.8633 17.4375 17.9388 17.6224 18.0273 17.7995V17.8008L18.0299 17.8034C18.1159 17.974 18.1081 17.8646 18.0781 17.9245C17.8672 18.3424 17.8385 18.4453 17.625 18.6914C17.2995 19.0664 16.9687 19.4831 16.793 19.6563C16.6393 19.8073 16.362 20.0417 16.1901 20.5026C16.0156 20.9622 16.0977 21.5951 16.375 22.0664C16.7448 22.694 17.9648 24.6797 19.8594 26.3477C21.0534 27.3997 22.1641 28.0964 23.0521 28.5651C23.9414 29.0326 24.6641 29.306 24.8255 29.3867C25.2109 29.5768 25.6302 29.7253 26.1185 29.6667C26.6081 29.6068 27.0286 29.3112 27.2969 29.0078L27.2982 29.0065C27.6562 28.6016 28.7161 27.3906 29.224 26.6445C29.2461 26.6523 29.2396 26.6458 29.4075 26.707V26.7096H29.4102C29.487 26.737 30.4544 27.1693 31.3164 27.5807C32.1784 27.9909 33.0534 28.418 33.3372 28.5586C33.7487 28.7617 33.9427 28.8945 33.9922 28.8945C33.9961 28.9831 33.9987 29.0781 33.9857 29.2227C33.9518 29.6237 33.8437 30.1797 33.6289 30.776C33.5234 31.0664 32.9753 31.668 32.2825 32.1055C31.5911 32.543 30.7487 32.8529 30.4375 32.8984C29.5 33.0365 28.3867 33.0872 27.1641 32.7031C26.3164 32.4375 25.2591 32.0925 23.8906 31.5104C21.1146 30.3255 18.7552 28.3112 17.0703 26.5378C16.2279 25.6497 15.5521 24.8242 15.0716 24.1992C14.5924 23.5755 14.3841 23.2513 14.2083 23.0221L14.207 23.0195C13.8971 22.6094 12 19.9714 12 17.5938C12 15.0781 13.168 14.0911 13.8008 13.4102C14.1328 13.0521 14.4961 13 14.6419 13H14.6432Z" fill="#EB8671"/>
</svg>
